<svg width="32" height="32" viewBox="0 0 32 32" fill="none" xmlns="http://www.w3.org/2000/svg">
<path fill-rule="evenodd" clip-rule="evenodd" d="M26 16C26 18.256 25.95 19.836 25.709 21.048C25.493 22.158 25.176 22.625 24.845 22.901C24.461 23.221 23.751 23.542 22.248 23.744C20.717 23.954 18.726 24 16 24C13.275 24 11.283 23.954 9.752 23.744C8.249 23.542 7.539 23.221 7.155 22.901C6.824 22.625 6.507 22.158 6.291 21.048C6.05 19.836 6 18.256 6 16C6 15.6509 6.0012 15.3179 6.00412 15H25.9959C25.9988 15.3179 26 15.6509 26 16ZM25.7184 11C25.7153 10.9839 25.7122 10.9679 25.709 10.952C25.493 9.842 25.176 9.375 24.845 9.099C24.461 8.779 23.751 8.458 22.248 8.255C20.717 8.046 18.726 8 16 8C13.275 8 11.283 8.046 9.752 8.255C8.249 8.458 7.539 8.779 7.155 9.099C6.824 9.375 6.507 9.842 6.291 10.952C6.28783 10.9679 6.2847 10.9839 6.28159 11H25.7184ZM28 16C28 25.167 27 26 16 26C5 26 4 25.167 4 16C4 6.833 5 6 16 6C27 6 28 6.833 28 16Z" fill="black"/>
<mask id="path-2-outside-1" maskUnits="userSpaceOnUse" x="22" y="3" width="10" height="10" fill="black">
<rect fill="white" x="22" y="3" width="10" height="10"/>
<path fill-rule="evenodd" clip-rule="evenodd" d="M25.9995 4.99985C26.0003 4.4476 26.4479 4 26.9994 4C27.5524 4 28 4.4476 27.9992 4.99985V6.99955L29.9989 6.99955C30.5512 7.00025 30.9995 7.44715 30.9995 8.0001C30.9995 8.55165 30.5512 8.99995 29.9989 8.99924L28 8.99995L28 10.9996C27.9992 11.5519 27.5516 11.9995 27.0001 11.9995C26.4471 11.9995 25.9995 11.5519 26.0003 10.9996L25.9995 8.99924L24.0006 8.99995C23.4483 8.99924 23 8.55235 23 7.9994C23 7.44785 23.4483 6.99955 24.0006 7.00025L25.9995 6.99955V4.99985Z"/>
</mask>
<path fill-rule="evenodd" clip-rule="evenodd" d="M25.9995 4.99985C26.0003 4.4476 26.4479 4 26.9994 4C27.5524 4 28 4.4476 27.9992 4.99985V6.99955L29.9989 6.99955C30.5512 7.00025 30.9995 7.44715 30.9995 8.0001C30.9995 8.55165 30.5512 8.99995 29.9989 8.99924L28 8.99995L28 10.9996C27.9992 11.5519 27.5516 11.9995 27.0001 11.9995C26.4471 11.9995 25.9995 11.5519 26.0003 10.9996L25.9995 8.99924L24.0006 8.99995C23.4483 8.99924 23 8.55235 23 7.9994C23 7.44785 23.4483 6.99955 24.0006 7.00025L25.9995 6.99955V4.99985Z" fill="black"/>
<path d="M25.9995 4.99985L24.9995 4.99857V4.99985H25.9995ZM27.9992 4.99985L26.9992 4.99857V4.99985H27.9992ZM27.9992 6.99955H26.9992V7.99955L27.9992 7.99955L27.9992 6.99955ZM29.9989 6.99955L30.0002 5.99955L29.9989 5.99955L29.9989 6.99955ZM29.9989 8.99924L30.0002 7.99924L29.9986 7.99924L29.9989 8.99924ZM28 8.99995L27.9996 7.99995L27 8.0003L27 8.99995L28 8.99995ZM28 10.9996L29 11.0009L29 10.9996L28 10.9996ZM26.0003 10.9996L27.0003 11.0009L27.0003 10.9993L26.0003 10.9996ZM25.9995 8.99924L26.9995 8.99889L26.9992 7.99889L25.9992 7.99924L25.9995 8.99924ZM24.0006 8.99995L23.9993 9.99995L24.0009 9.99995L24.0006 8.99995ZM24.0006 7.00025L23.9993 8.00025L24.0009 8.00025L24.0006 7.00025ZM25.9995 6.99955L25.9999 7.99955L26.9995 7.99919V6.99955H25.9995ZM26.9995 5.00113C26.9995 4.99972 26.9997 4.99936 26.9996 4.99973C26.9995 5.00005 26.9994 5.00043 26.9993 5.00074C26.9991 5.00122 26.9992 5.00076 27 4.99994C27.0008 4.99912 27.0012 4.99914 27.0004 4.99948C26.9999 4.99968 26.9993 4.99986 26.9988 4.99998C26.9981 5.0001 26.9982 5 26.9994 5V3C25.8949 3 25.001 3.89574 24.9995 4.99857L26.9995 5.00113ZM26.9994 5C27.0009 5 27.0013 5.00014 27.0009 5.00006C27.0006 4.99999 27.0001 4.99986 26.9997 4.99969C26.999 4.9994 26.9993 4.99936 26.9998 4.99994C27.0004 5.00051 27.0002 5.00059 26.9998 4.99958C26.9996 4.99902 26.9994 4.99838 26.9993 4.99782C26.9991 4.9972 26.9992 4.99733 26.9992 4.99857L28.9992 5.00113C29.0007 3.89489 28.1039 3 26.9994 3V5ZM26.9992 4.99985V6.99955H28.9992V4.99985H26.9992ZM27.9992 7.99955L29.9989 7.99955L29.9989 5.99955L27.9992 5.99955L27.9992 7.99955ZM29.9977 7.99955C29.9992 7.99955 29.9997 7.99969 29.9994 7.99963C29.9992 7.99959 29.9989 7.9995 29.9986 7.9994C29.9983 7.99924 29.9988 7.9994 29.9996 8.00018C30.0003 8.00096 30.0003 8.00124 29.9999 8.00042C29.9997 7.99995 29.9996 7.99941 29.9995 7.99896C29.9994 7.99845 29.9995 7.99871 29.9995 8.0001H31.9995C31.9995 6.89324 31.1021 6.00096 30.0002 5.99955L29.9977 7.99955ZM29.9995 8.0001C29.9995 8.00114 29.9994 8.00118 29.9995 8.00054C29.9997 7.99997 29.9998 7.99938 30 7.99893C30.0004 7.99816 30.0004 7.99851 29.9996 7.99932C29.9988 8.00012 29.9984 8.00011 29.9992 7.99977C29.9997 7.99957 30.0003 7.99939 30.0008 7.99927C30.0014 7.99915 30.0014 7.99925 30.0002 7.99925L29.9977 9.99924C31.103 10.0007 31.9995 9.10414 31.9995 8.0001H29.9995ZM29.9986 7.99924L27.9996 7.99995L28.0003 9.99995L29.9993 9.99924L29.9986 7.99924ZM27 8.99995L27 10.9996L29 10.9996L29 8.99995L27 8.99995ZM27 10.9984C27 10.9998 26.9998 11.0001 26.9999 10.9998C27 10.9994 27.0001 10.9991 27.0002 10.9988C27.0004 10.9983 27.0003 10.9987 26.9995 10.9996C26.9987 11.0004 26.9983 11.0004 26.9991 11C26.9996 10.9998 27.0002 10.9996 27.0007 10.9995C27.0014 10.9994 27.0012 10.9995 27.0001 10.9995V12.9995C28.1046 12.9995 28.9985 12.1038 29 11.0009L27 10.9984ZM27.0001 10.9995C26.9986 10.9995 26.9982 10.9994 26.9986 10.9994C26.9989 10.9995 26.9994 10.9996 26.9998 10.9998C27.0005 11.0001 27.0002 11.0001 26.9997 10.9996C26.9991 10.999 26.9993 10.9989 26.9997 10.9999C26.9999 11.0005 27.0001 11.0011 27.0002 11.0017C27.0004 11.0023 27.0003 11.0022 27.0003 11.0009L25.0003 10.9984C24.9988 12.1046 25.8956 12.9995 27.0001 12.9995V10.9995ZM27.0003 10.9993L26.9995 8.99889L24.9995 8.9996L25.0003 11L27.0003 10.9993ZM25.9992 7.99924L24.0002 7.99995L24.0009 9.99995L25.9999 9.99924L25.9992 7.99924ZM24.0018 7.99995C24.0003 7.99995 23.9998 7.99981 24.0001 7.99987C24.0003 7.99991 24.0006 8 24.0009 8.0001C24.0012 8.00025 24.0007 8.0001 23.9999 7.99932C23.9992 7.99854 23.9992 7.99826 23.9996 7.99908C23.9998 7.99955 23.9999 8.00008 24 8.00054C24.0001 8.00105 24 8.00078 24 7.9994H22C22 9.10626 22.8974 9.99854 23.9993 9.99995L24.0018 7.99995ZM24 7.9994C24 7.99836 24.0001 7.99832 24 7.99896C23.9998 7.99953 23.9997 8.00012 23.9995 8.00057C23.9991 8.00134 23.9991 8.00099 23.9999 8.00018C24.0007 7.99938 24.0011 7.99939 24.0003 7.99973C23.9998 7.99992 23.9992 8.00011 23.9987 8.00022C23.9981 8.00035 23.9981 8.00025 23.9993 8.00025L24.0018 6.00025C22.8965 5.99884 22 6.89535 22 7.9994H24ZM24.0009 8.00025L25.9999 7.99955L25.9992 5.99955L24.0002 6.00025L24.0009 8.00025ZM26.9995 6.99955V4.99985H24.9995V6.99955H26.9995Z" fill="#E5E5E5" mask="url(#path-2-outside-1)"/>
</svg>
