<svg width="32" height="32" viewBox="0 0 32 32" fill="none" xmlns="http://www.w3.org/2000/svg">
<path d="M19 22.8L21.2222 18L21.2222 21.2H23L20.7778 26V22.8H19Z" stroke="black" stroke-width="2" stroke-linecap="round" stroke-linejoin="round"/>
<path fill-rule="evenodd" clip-rule="evenodd" d="M19.8345 16.9772C20.7136 16.173 21 14.8729 21 13C21 10.2386 18.7614 8 16 8C13.2385 8 11 10.2386 11 13C11 14.8729 11.2863 16.173 12.1654 16.9772C10.5404 17.8663 9.25772 19.3031 8.5657 21.0393C8.40301 21.4474 8.3518 21.9776 8.72653 22.207C9.51852 22.692 10.3589 21.7498 10.8317 20.9504C11.876 19.1844 13.7996 18 16 18C16.1048 18 16.209 18.0027 16.3125 18.008C17.4439 18.066 18.6851 17.9528 19.5523 17.2238C19.6492 17.1425 19.7439 17.0601 19.8345 16.9772ZM19 13C19 14.6826 18.7287 15.2411 18.5304 15.4559C18.3677 15.6321 17.8507 16 16 16C14.1492 16 13.6322 15.6321 13.4696 15.4559C13.2713 15.2411 13 14.6826 13 13C13 11.3431 14.3431 10 16 10C17.6568 10 19 11.3431 19 13Z" fill="black"/>
</svg>
