<svg width="32" height="32" fill="none" xmlns="http://www.w3.org/2000/svg"><path fill-rule="evenodd" clip-rule="evenodd" d="M32 16c0 8.836-7.164 16-16 16S0 24.836 0 16 7.164 0 16 0s16 7.164 16 16zM16.194 8.096A2.395 2.395 0 0 0 16 8.018a2.41 2.41 0 0 0-.194.078 9.096 9.096 0 0 0-.888.46 35.105 35.105 0 0 0-2.716 1.761 50.516 50.516 0 0 0-2.435 1.814 92.19 92.19 0 0 1-2.06 1.576.999.999 0 1 1-1.414-1.414C8.5 10.5 8.9 10.201 11.048 8.683a37.82 37.82 0 0 1 2.878-1.864c.401-.229.78-.425 1.077-.555.262-.115.64-.264.997-.264.358 0 .735.149.997.264.297.13.676.326 1.077.555a37.78 37.78 0 0 1 2.878 1.864c2.15 1.518 2.548 1.817 4.755 3.61a.999.999 0 1 1-1.414 1.414 92.156 92.156 0 0 1-2.06-1.576 50.503 50.503 0 0 0-2.435-1.814 35.085 35.085 0 0 0-2.716-1.761 9.074 9.074 0 0 0-.888-.46zM7 24a1 1 0 0 1 1-1h16a1 1 0 0 1 0 2H8a1 1 0 0 1-1-1zm8-3a1 1 0 0 0 2 0v-7a1 1 0 0 0-2 0v7zm6 1a1 1 0 0 1-1-1v-7a1 1 0 0 1 2 0v7a1 1 0 0 1-1 1zm-11-1a1 1 0 0 0 2 0v-7a1 1 0 0 0-2 0v7z" fill="#000"/></svg>