<svg width="32" height="32" viewBox="0 0 32 32" fill="none" xmlns="http://www.w3.org/2000/svg">
<path fill-rule="evenodd" clip-rule="evenodd" d="M30 16C30 23.364 23.364 30 16 30C8.636 30 2 23.364 2 16C2 8.636 8.636 2 16 2C23.364 2 30 8.636 30 16ZM32 16C32 24.836 24.836 32 16 32C7.164 32 0 24.836 0 16C0 7.164 7.164 0 16 0C24.836 0 32 7.164 32 16Z" fill="black"/>
<path fill-rule="evenodd" clip-rule="evenodd" d="M13.153 4.43401C12.62 4.29101 12.071 4.60801 11.928 5.14101L6.23403 26.392C6.09103 26.925 6.40803 27.474 6.94103 27.616C7.47503 27.759 8.02303 27.443 8.16603 26.909L10.911 16.667C10.97 16.686 11.033 16.704 11.098 16.724C12.155 17.039 13.909 17.563 16.547 19.525C22.994 24.321 24.753 18.355 26.047 13.525C26.681 11.159 26.347 11.161 25.187 11.166C23.98 11.171 21.88 11.18 19.047 8.52501C16.646 6.27501 15.013 5.50301 13.792 5.91301L13.86 5.65901C14.003 5.12601 13.687 4.57701 13.153 4.43401V4.43401Z" fill="black"/>
</svg>
