<svg width="32" height="32" viewBox="0 0 32 32" fill="none" xmlns="http://www.w3.org/2000/svg">
<path fill-rule="evenodd" clip-rule="evenodd" d="M15.2933 22.708C15.6833 23.098 16.3173 23.098 16.7073 22.708L20.7073 18.708C21.0983 18.317 21.0983 17.684 20.7073 17.293C20.3173 16.903 19.6833 16.903 19.2933 17.293L17.0003 19.586V8C17.0003 7.448 16.5523 7 16.0003 7C15.4483 7 15.0003 7.448 15.0003 8V19.586L12.7072 17.293C12.3172 16.903 11.6833 16.903 11.2933 17.293C10.9022 17.684 10.9022 18.317 11.2933 18.708L15.2933 22.708V22.708Z" fill="black"/>
<path fill-rule="evenodd" clip-rule="evenodd" d="M8 20.001C8 20 8 20 8 19.999C7.999 18.3 8.045 17.14 8.25 16.229C8.251 16.224 8.252 16.219 8.253 16.214C8.426 15.425 8.662 15.111 8.891 14.923H8.892C9.174 14.692 9.726 14.425 10.935 14.244C10.936 14.244 10.937 14.244 10.938 14.243C10.986 14.236 11.035 14.229 11.085 14.222C11.601 14.15 12 13.721 12 13.2C12 12.616 11.499 12.151 10.92 12.227C6.588 12.793 6 14.632 6 20C6 27 7 28 16 28C25 28 26 27 26 20C26 14.632 25.412 12.793 21.08 12.227C20.501 12.151 20 12.616 20 13.2C20 13.721 20.399 14.15 20.915 14.222C20.965 14.229 21.014 14.236 21.062 14.243C21.063 14.244 21.064 14.244 21.065 14.244C22.274 14.425 22.827 14.692 23.109 14.923C23.338 15.111 23.574 15.425 23.747 16.214C23.748 16.219 23.749 16.224 23.75 16.229C23.954 17.14 24 18.3 24 19.999C24 20 24 20 24 20.001C24 21.7 23.954 22.86 23.75 23.771C23.749 23.776 23.748 23.781 23.747 23.786C23.574 24.575 23.338 24.889 23.109 25.077C22.827 25.308 22.274 25.575 21.066 25.756C21.065 25.756 21.063 25.756 21.061 25.757C19.814 25.946 18.213 26 16 26C13.787 26 12.186 25.946 10.939 25.757C10.937 25.756 10.935 25.756 10.934 25.756C9.726 25.575 9.174 25.308 8.892 25.077H8.891C8.662 24.889 8.426 24.575 8.253 23.786C8.252 23.781 8.251 23.776 8.25 23.771C8.045 22.86 7.999 21.7 8 20.001Z" fill="black"/>
</svg>
