<svg width="32" height="32" fill="none" xmlns="http://www.w3.org/2000/svg"><path fill-rule="evenodd" clip-rule="evenodd" d="M15.293 21.708a1 1 0 0 0 1.414 0l4-4a1 1 0 1 0-1.414-1.415L17 18.586V7a1 1 0 0 0-2 0v11.586l-2.293-2.293a1 1 0 0 0-1.414 1.415l4 4z" fill="#000"/><path fill-rule="evenodd" clip-rule="evenodd" d="M8 18.001v-.002c-.001-1.699.045-2.859.25-3.77l.003-.015c.173-.789.409-1.103.638-1.291h.001c.282-.231.834-.498 2.043-.679l.003-.001.147-.021c.516-.072.915-.501.915-1.022 0-.584-.501-1.049-1.08-.973C6.588 10.793 6 12.632 6 18c0 7 1 8 10 8s10-1 10-8c0-5.368-.588-7.207-4.92-7.773-.579-.076-1.08.389-1.08.973 0 .521.399.95.915 1.022a25.984 25.984 0 0 1 .15.022c1.209.181 1.762.448 2.044.679.229.188.465.502.638 1.291l.003.015c.204.911.25 2.071.25 3.77v.002c0 1.699-.046 2.859-.25 3.77l-.003.015c-.173.789-.409 1.103-.638 1.291-.282.231-.835.498-2.043.679l-.005.001C19.814 23.946 18.213 24 16 24s-3.814-.054-5.061-.243l-.005-.001c-1.208-.181-1.76-.448-2.042-.679h-.001c-.229-.188-.465-.502-.638-1.291l-.003-.015c-.205-.911-.251-2.071-.25-3.77z" fill="#000"/></svg>