<svg width="32" height="32" viewBox="0 0 32 32" fill="none" xmlns="http://www.w3.org/2000/svg">
<path fill-rule="evenodd" clip-rule="evenodd" d="M28 16C28 6 26 4 16 4C6 4 4 6 4 16C4 26 6 28 16 28C26 28 28 26 28 16ZM24.336 24.336C25.425 23.247 26 21.1 26 16C26 13.8599 25.8987 12.24 25.7008 11H16H6.2992C6.10123 12.24 6 13.8601 6 16C6 21.1 6.575 23.247 7.664 24.336C8.753 25.425 10.9 26 16 26C21.1 26 23.247 25.425 24.336 24.336ZM11 8.00001C11.0001 7.44769 11.4477 7.00002 12.0001 6.99995H20C20.5523 6.99995 21 7.44773 21 8.00001C21 8.5523 20.5523 9 20 9H12C11.4477 9 11 8.55226 11 8.00001Z" fill="black"/>
<path d="M15.1204 19.086L18.5344 15.672C18.9254 15.282 19.5584 15.281 19.9494 15.672C20.3394 16.062 20.3394 16.696 19.9484 17.086L18.5354 18.5L17.1204 19.914L15.7074 21.328C15.3164 21.718 14.6834 21.719 14.2924 21.328C13.9024 20.938 13.9024 20.304 14.2934 19.914L15.1204 19.086Z" fill="black"/>
<path d="M14.8796 19.086L13.4656 17.672C13.0746 17.282 12.4416 17.281 12.0506 17.672C11.6606 18.062 11.6606 18.696 12.0516 19.086L13.4646 20.5L12.8796 19.914L14.2926 21.328C14.6836 21.718 15.3166 21.719 15.7076 21.328C16.0976 20.938 16.0976 20.304 15.7066 19.914L14.8796 19.086Z" fill="black"/>
</svg>
