<svg width="32" height="32" fill="none" xmlns="http://www.w3.org/2000/svg"><path fill-rule="evenodd" clip-rule="evenodd" d="M19.536 11.465c.552 0 1 .448 1 1v5.657a.999.999 0 1 1-2 0v-3.243l-5.364 5.364a1 1 0 0 1-1.415-1.414l5.365-5.364h-3.243a.999.999 0 1 1 0-2h5.657z" fill="#000"/><path fill="none" d="M6 6h20v20H6z"/><path fill-rule="evenodd" clip-rule="evenodd" d="M22.586 22.586C23.45 21.722 24 20.014 24 16s-.55-5.722-1.414-6.586C21.722 8.55 20.014 8 16 8s-5.722.55-6.586 1.414C8.55 10.278 8 11.986 8 16s.55 5.722 1.414 6.586C10.278 23.45 11.986 24 16 24s5.722-.55 6.586-1.414zM16 26c8 0 10-2 10-10S24 6 16 6 6 8 6 16s2 10 10 10z" fill="#000"/></svg>