<svg width="32" height="32" viewBox="0 0 32 32" fill="none" xmlns="http://www.w3.org/2000/svg">
<path fill-rule="evenodd" clip-rule="evenodd" d="M26 16C26 21.523 21.523 26 16 26C10.477 26 6 21.523 6 16C6 10.477 10.477 6 16 6C21.523 6 26 10.477 26 16ZM28 16C28 22.627 22.627 28 16 28C9.373 28 4 22.627 4 16C4 9.373 9.373 4 16 4C22.627 4 28 9.373 28 16Z" fill="black"/>
<path d="M24.464 27.8564C23.986 28.1324 23.402 28.0169 23.1605 27.5986L16.0355 15.2577C15.794 14.8394 15.986 14.276 16.464 14C16.9421 13.724 17.5261 13.8394 17.7676 14.2577L24.8926 26.5986C25.1341 27.0169 24.9421 27.5804 24.464 27.8564Z" fill="black"/>
<path d="M20.196 16.4639C20.472 16.9419 20.308 17.5539 19.83 17.8299L20.83 19.5619C22.265 18.7339 22.756 16.8989 21.928 15.4639L20.428 12.866C20.152 12.3871 19.54 12.224 19.062 12.5C18.584 12.776 18.42 13.387 18.696 13.866L20.196 16.4639Z" fill="black"/>
<path d="M16.7319 18.4639C17.0079 18.9419 17.6199 19.1059 18.0979 18.8299L19.0979 20.5619C17.6633 21.3907 15.8287 20.8984 14.9999 19.4638L13.5001 16.8659C13.2233 16.3873 13.3881 15.7758 13.8661 15.4999C14.3441 15.2239 14.9553 15.3874 15.2321 15.8659L16.7319 18.4639Z" fill="black"/>
</svg>
