<svg width="32" height="32" viewBox="0 0 32 32" fill="none" xmlns="http://www.w3.org/2000/svg">
<path d="M10.9999 24C10.4479 24 9.99994 23.608 9.99994 23.125V8.87502C9.99994 8.39202 10.4479 8.00002 10.9999 8.00002C11.5519 8.00002 11.9999 8.39202 11.9999 8.87502V23.125C11.9999 23.608 11.5519 24 10.9999 24Z" fill="black"/>
<path d="M12.9999 11.9998C12.9999 12.5518 12.5519 12.9998 11.9999 12.9998L12 14.9998C13.6567 15.0002 14.9994 13.6565 14.9999 11.9998L14.9998 8.99996C15.0002 8.44713 14.5517 7.99997 13.9998 7.99999C13.4478 8.00002 13.0003 8.44716 12.9998 8.99998L12.9999 11.9998Z" fill="black"/>
<path d="M8.99997 11.9998C8.99995 12.5518 9.44798 12.9998 9.99994 12.9998L9.99991 14.9998C8.34317 15.0002 7.00045 13.6565 7.00002 11.9998L7.00012 8.99996C6.99964 8.44713 7.44815 7.99997 8.00011 7.99999C8.55207 8.00002 8.9996 8.44716 9.00008 8.99998L8.99997 11.9998Z" fill="black"/>
<path d="M20.9998 24C20.4478 24 19.9998 23.608 19.9998 23.125V8.875C19.9998 8.392 20.4478 8 20.9998 8C21.5518 8 21.9998 8.392 21.9998 8.875V23.125C21.9998 23.608 21.5518 24 20.9998 24Z" fill="black"/>
<ellipse cx="20.9998" cy="11.5" rx="4" ry="3.5" fill="black"/>
</svg>
