<svg width="32" height="32" fill="none" xmlns="http://www.w3.org/2000/svg"><path fill-rule="evenodd" clip-rule="evenodd" d="M27 4c.552 0 1 .448 1 1v5.657a.999.999 0 1 1-2 0V7.414l-5.364 5.364a1 1 0 0 1-1.414-1.414L24.586 6h-3.243a.999.999 0 1 1 0-2H27zM5 4c-.552 0-1 .448-1 1v5.657a.999.999 0 1 0 2 0V7.414l5.364 5.364a1 1 0 0 0 1.414-1.414L7.414 6h3.243a.999.999 0 1 0 0-2H5zM5 28c-.552 0-1-.448-1-1v-5.657a.999.999 0 1 1 2 0v3.243l5.364-5.364a1 1 0 0 1 1.414 1.414L7.414 26h3.243a.999.999 0 1 1 0 2H5zM27 28c.552 0 1-.448 1-1v-5.657a.999.999 0 1 0-2 0v3.243l-5.364-5.364a1 1 0 0 0-1.414 1.414L24.586 26h-3.243a.999.999 0 1 0 0 2H27z" fill="#000"/></svg>