<svg width="32" height="32" viewBox="0 0 32 32" fill="none" xmlns="http://www.w3.org/2000/svg">
<path d="M14 11C14 13.0166 13.6991 13.4727 13.5859 13.5859C13.4727 13.6991 13.0166 14 11 14C8.98342 14 8.52734 13.6991 8.41411 13.5859C8.30087 13.4727 8 13.0166 8 11C8 8.98342 8.30087 8.52734 8.41411 8.41411C8.52734 8.30087 8.98342 8 11 8C13.0166 8 13.4727 8.30087 13.5859 8.41411C13.6991 8.52734 14 8.98342 14 11Z" stroke="black" stroke-width="2"/>
<path d="M24 11C24 13.0166 23.6991 13.4727 23.5859 13.5859C23.4727 13.6991 23.0166 14 21 14C18.9834 14 18.5273 13.6991 18.4141 13.5859C18.3009 13.4727 18 13.0166 18 11C18 8.98342 18.3009 8.52734 18.4141 8.41411C18.5273 8.30087 18.9834 8 21 8C23.0166 8 23.4727 8.30087 23.5859 8.41411C23.6991 8.52734 24 8.98342 24 11Z" stroke="black" stroke-width="2"/>
<path d="M14 21C14 23.0166 13.6991 23.4727 13.5859 23.5859C13.4727 23.6991 13.0166 24 11 24C8.98342 24 8.52734 23.6991 8.41411 23.5859C8.30087 23.4727 8 23.0166 8 21C8 18.9834 8.30087 18.5273 8.41411 18.4141C8.52734 18.3009 8.98342 18 11 18C13.0166 18 13.4727 18.3009 13.5859 18.4141C13.6991 18.5273 14 18.9834 14 21Z" stroke="black" stroke-width="2"/>
<path d="M24 21C24 23.0166 23.6991 23.4727 23.5859 23.5859C23.4727 23.6991 23.0166 24 21 24C18.9834 24 18.5273 23.6991 18.4141 23.5859C18.3009 23.4727 18 23.0166 18 21C18 18.9834 18.3009 18.5273 18.4141 18.4141C18.5273 18.3009 18.9834 18 21 18C23.0166 18 23.4727 18.3009 23.5859 18.4141C23.6991 18.5273 24 18.9834 24 21Z" stroke="black" stroke-width="2"/>
</svg>
