<svg width="32" height="32" viewBox="0 0 32 32" fill="none" xmlns="http://www.w3.org/2000/svg">
<g clip-path="url(#clip0)">
<path fill-rule="evenodd" clip-rule="evenodd" d="M26 16C26 21.523 21.523 26 16 26C10.477 26 6 21.523 6 16C6 10.477 10.477 6 16 6C21.523 6 26 10.477 26 16ZM28 16C28 22.627 22.627 28 16 28C9.373 28 4 22.627 4 16C4 9.373 9.373 4 16 4C22.627 4 28 9.373 28 16Z" fill="black"/>
<circle cx="16" cy="16" r="5" stroke="black" stroke-width="2"/>
<path d="M12.4645 12.4645C12.0741 12.8548 11.4802 12.8944 11.1386 12.5529L7.42634 8.84055C7.0848 8.49902 7.1244 7.90505 7.51472 7.51473C7.90505 7.1244 8.49902 7.0848 8.84055 7.42634L12.5529 11.1386C12.8944 11.4802 12.8548 12.0741 12.4645 12.4645Z" fill="black"/>
<path d="M24.4853 24.4853C24.095 24.8756 23.501 24.9152 23.1595 24.5737L19.4471 20.8614C19.1056 20.5198 19.1452 19.9259 19.5355 19.5355C19.9259 19.1452 20.5198 19.1056 20.8614 19.4472L24.5737 23.1595C24.9152 23.501 24.8756 24.095 24.4853 24.4853Z" fill="black"/>
<path d="M12.4644 19.5355C12.8548 19.9259 12.8944 20.5198 12.5528 20.8614L8.84052 24.5737C8.49899 24.9152 7.90502 24.8756 7.51469 24.4853C7.12437 24.095 7.08477 23.501 7.42631 23.1595L11.1386 19.4471C11.4801 19.1056 12.0741 19.1452 12.4644 19.5355Z" fill="black"/>
<path d="M24.4853 7.51472C24.8756 7.90504 24.9152 8.49901 24.5736 8.84054L20.8613 12.5529C20.5198 12.8944 19.9258 12.8548 19.5355 12.4645C19.1452 12.0741 19.1056 11.4802 19.4471 11.1386L23.1594 7.42633C23.501 7.08479 24.0949 7.12439 24.4853 7.51472Z" fill="black"/>
</g>
<defs>
<clipPath id="clip0">
<rect width="32" height="32" fill="white"/>
</clipPath>
</defs>
</svg>
