<svg width="32" height="32" viewBox="0 0 32 32" fill="none" xmlns="http://www.w3.org/2000/svg">
<path fill-rule="evenodd" clip-rule="evenodd" d="M26 16C26 21.523 21.523 26 16 26C10.477 26 6 21.523 6 16C6 10.477 10.477 6 16 6C21.523 6 26 10.477 26 16ZM28 16C28 22.627 22.627 28 16 28C9.373 28 4 22.627 4 16C4 9.373 9.373 4 16 4C22.627 4 28 9.373 28 16Z" fill="black"/>
<path d="M16 12.75C16.829 12.75 17.5 12.078 17.5 11.25C17.5 10.422 16.829 9.75 16 9.75C15.171 9.75 14.5 10.422 14.5 11.25C14.5 12.078 15.171 12.75 16 12.75Z" fill="black"/>
<path d="M16 22.25C15.448 22.25 15 21.858 15 21.375V15.125C15 14.642 15.448 14.25 16 14.25C16.552 14.25 17 14.642 17 15.125V21.375C17 21.858 16.552 22.25 16 22.25Z" fill="black"/>
</svg>
