<svg width="32" height="32" viewBox="0 0 32 32" fill="none" xmlns="http://www.w3.org/2000/svg">
<path fill-rule="evenodd" clip-rule="evenodd" d="M32 16C32 24.836 24.836 32 16 32C7.164 32 0 24.836 0 16C0 7.164 7.164 0 16 0C24.836 0 32 7.164 32 16ZM19.0805 10.8728C19.0805 12.5557 18.8095 13.1137 18.6115 13.3287C18.4485 13.5047 17.9316 13.8727 16.0807 13.8727C14.2307 13.8727 13.7138 13.5047 13.5508 13.3287C13.3528 13.1137 13.0808 12.5557 13.0808 10.8728C13.0808 9.21589 14.4237 7.87295 16.0807 7.87295C17.7376 7.87295 19.0805 9.21589 19.0805 10.8728ZM19.9155 14.8496C20.7944 14.0457 21.0804 12.7457 21.0804 10.8728C21.0804 8.11194 18.8425 5.87305 16.0807 5.87305C13.3198 5.87305 11.0809 8.11194 11.0809 10.8728C11.0809 12.7457 11.3679 14.0457 12.2468 14.8496C10.5819 15.7606 9.27697 17.2455 8.598 19.0384C8.474 19.3664 8.444 19.7464 8.64899 20.0314C9.21797 20.8204 10.3229 19.9204 10.7789 19.0614C11.7868 17.1645 13.7828 15.8726 16.0807 15.8726C18.3785 15.8726 20.3755 17.1645 21.3834 19.0614C21.8394 19.9204 22.9443 20.8204 23.5123 20.0314C23.7173 19.7464 23.6883 19.3664 23.5643 19.0384C22.8843 17.2455 21.5794 15.7606 19.9155 14.8496ZM15.0981 19.127C15.0981 18.575 15.5461 18.127 16.0981 18.127C16.6511 18.127 17.0981 18.575 17.0981 19.127V20.3949L18.1962 19.7609C18.6742 19.4849 19.2862 19.6489 19.5622 20.127C19.8387 20.6059 19.6742 21.217 19.1962 21.493L18.0981 22.127L19.1962 22.7609C19.6742 23.0369 19.8387 23.648 19.5622 24.127C19.2862 24.605 18.6742 24.769 18.1962 24.493L17.0981 23.859V25.127C17.0981 25.679 16.6511 26.127 16.0981 26.127C15.5461 26.127 15.0981 25.679 15.0981 25.127V23.859L14 24.493C13.522 24.769 12.9105 24.6059 12.634 24.127C12.358 23.6489 12.522 23.0369 13 22.7609L14.0981 22.127L13 21.493C12.522 21.217 12.358 20.605 12.634 20.127C12.9105 19.648 13.522 19.4849 14 19.7609L15.0981 20.3949V19.127Z" fill="black"/>
</svg>
