<svg width="32" height="32" fill="none" xmlns="http://www.w3.org/2000/svg"><path d="M19.08 10.873c0 1.683-.27 2.24-.468 2.456-.163.176-.68.544-2.531.544-1.85 0-2.367-.368-2.53-.544-.198-.215-.47-.773-.47-2.456a3 3 0 1 1 6 0z" fill="#000"/><path fill-rule="evenodd" clip-rule="evenodd" d="M16 32c8.836 0 16-7.164 16-16S24.836 0 16 0 0 7.164 0 16s7.164 16 16 16zm3.916-17.15c.878-.804 1.164-2.104 1.164-3.977a5 5 0 1 0-10 0c0 1.873.288 3.173 1.167 3.977a8.025 8.025 0 0 0-3.649 4.188c-.124.328-.154.708.051.993.569.79 1.674-.11 2.13-.97a6 6 0 1 1 10.605 0c.455.86 1.56 1.76 2.128.97.205-.285.176-.665.052-.993a8.034 8.034 0 0 0-3.648-4.188zm-3.818 3.277a1 1 0 0 0-1 1v1.268L14 19.76a1 1 0 1 0-1 1.732l1.098.634-1.098.634a1 1 0 0 0 1 1.732l1.098-.634v1.268a1 1 0 0 0 2 0v-1.268l1.098.634a1 1 0 0 0 1-1.732l-1.098-.634 1.098-.634a1 1 0 1 0-1-1.732l-1.098.634v-1.268a1 1 0 0 0-1-1z" fill="#000"/></svg>