<svg width="32" height="32" fill="none" xmlns="http://www.w3.org/2000/svg"><path fill-rule="evenodd" clip-rule="evenodd" d="M28 16C28 6 26 4 16 4S4 6 4 16s2 12 12 12 12-2 12-12zm-16.719-3.437c.111.1.168.247.153.395v5.344a.615.615 0 0 1-.164.53L10 20.372v.204h3.601v-.204l-1.27-1.54a.638.638 0 0 1-.175-.53V13.68l3.16 6.896h.368l2.715-6.896v5.496c0 .147 0 .175-.096.271l-.977.948v.203h4.741v-.203l-.942-.925a.282.282 0 0 1-.107-.271v-6.8a.282.282 0 0 1 .107-.27l.965-.926V11h-3.341l-2.382 5.942L13.657 11h-3.505v.203l1.13 1.36z" fill="#000"/></svg>