<svg width="32" height="32" viewBox="0 0 32 32" fill="none" xmlns="http://www.w3.org/2000/svg">
<path fill-rule="evenodd" clip-rule="evenodd" d="M26 15.5C26 21.023 21.523 25.5 16 25.5C10.477 25.5 6 21.023 6 15.5C6 9.977 10.477 5.5 16 5.5C21.523 5.5 26 9.977 26 15.5ZM28 15.5C28 22.127 22.627 27.5 16 27.5C9.373 27.5 4 22.127 4 15.5C4 8.873 9.373 3.5 16 3.5C22.627 3.5 28 8.873 28 15.5ZM10.5 15.5C11.329 15.5 12 14.828 12 14C12 13.172 11.329 12.5 10.5 12.5C9.671 12.5 9 13.172 9 14C9 14.828 9.671 15.5 10.5 15.5ZM23 14C23 14.828 22.329 15.5 21.5 15.5C20.671 15.5 20 14.828 20 14C20 13.172 20.671 12.5 21.5 12.5C22.329 12.5 23 13.172 23 14Z" fill="black"/>
<path fill-rule="evenodd" clip-rule="evenodd" d="M11 20C11 19.448 11.4135 19 11.9231 19H20.0769C20.5865 19 21 19.448 21 20C21 20.552 20.5865 21 20.0769 21H11.9231C11.4135 21 11 20.552 11 20Z" fill="black"/>
</svg>
