<svg width="32" height="32" viewBox="0 0 32 32" fill="none" xmlns="http://www.w3.org/2000/svg">
<path fill-rule="evenodd" clip-rule="evenodd" d="M28 16C28 6 26 4 16 4C6 4 4 6 4 16C4 26 6 28 16 28C26 28 28 26 28 16ZM8 15.7603C8 11.3015 11.493 8 16 8C20.507 8 24 11.3015 24 15.7603C24 20.2191 20.507 23.5205 16 23.5205C15.1903 23.5205 14.4129 23.4143 13.6837 23.2131C13.5421 23.1744 13.3924 23.1857 13.2571 23.2453L11.67 23.9455C11.2547 24.1274 10.7863 23.8328 10.7718 23.3789L10.7284 21.9559C10.7219 21.7805 10.6431 21.6179 10.5127 21.5004C8.95614 20.108 8 18.0927 8 15.7603ZM18.4531 17.6983L20.8032 13.9703C21.0302 13.6129 20.5891 13.2089 20.2527 13.4649L17.7288 15.3804C17.5581 15.5091 17.3231 15.5108 17.1509 15.382L15.2821 13.98C14.7219 13.5598 13.9203 13.7079 13.5469 14.3003L11.1968 18.0283C10.9698 18.3856 11.4109 18.7897 11.7473 18.5337L14.2712 16.6182C14.4419 16.4894 14.6769 16.4878 14.8491 16.6166L16.7179 18.0186C17.2781 18.4388 18.0797 18.2907 18.4531 17.6983Z" fill="black"/>
</svg>
