<svg width="32" height="32" viewBox="0 0 32 32" fill="none" xmlns="http://www.w3.org/2000/svg">
<path fill-rule="evenodd" clip-rule="evenodd" d="M16.5 28C23.127 28 28.5 22.627 28.5 16C28.5 9.373 23.127 4 16.5 4C9.873 4 4.5 9.373 4.5 16C4.5 22.627 9.873 28 16.5 28ZM15.2675 17C15.6133 17.5978 16.2597 18 17 18C17.7403 18 18.3867 17.5978 18.7325 17C18.7414 16.9846 18.7501 16.969 18.7586 16.9533C18.9125 16.6699 19 16.3452 19 16C19 15.6358 18.9026 15.2944 18.7326 15.0002C18.3868 14.4024 17.7403 14 17 14C16.2597 14 15.6133 14.4022 15.2675 15C15.2586 15.0154 15.2499 15.031 15.2414 15.0467C15.0875 15.3301 15 15.6548 15 16C15 16.3642 15.0975 16.7059 15.2675 17ZM11 18C10.2597 18 9.6133 17.5978 9.2675 17C9.0975 16.7059 9 16.3642 9 16C9 15.6548 9.0875 15.3301 9.2414 15.0467C9.2499 15.031 9.2586 15.0154 9.2675 15C9.6133 14.4022 10.2597 14 11 14C11.7403 14 12.3868 14.4024 12.7326 15.0002C12.9026 15.2944 13 15.6358 13 16C13 16.3452 12.9125 16.6699 12.7586 16.9533C12.7501 16.969 12.7414 16.9846 12.7325 17C12.3867 17.5978 11.7403 18 11 18ZM21.2675 17C21.6133 17.5978 22.2597 18 23 18C23.7403 18 24.3867 17.5978 24.7325 17C24.7414 16.9846 24.7501 16.969 24.7586 16.9533C24.9125 16.6699 25 16.3452 25 16C25 15.6358 24.9026 15.2944 24.7326 15.0002C24.3868 14.4024 23.7403 14 23 14C22.2597 14 21.6133 14.4022 21.2675 15C21.2586 15.0154 21.2499 15.031 21.2414 15.0467C21.0875 15.3301 21 15.6548 21 16C21 16.3642 21.0975 16.7059 21.2675 17Z" fill="black"/>
</svg>
