<svg width="32" height="32" viewBox="0 0 32 32" fill="none" xmlns="http://www.w3.org/2000/svg">
<path d="M17 18C16.2597 18 15.6133 17.5978 15.2675 17C15.0975 16.7059 15 16.3642 15 16C15 15.6548 15.0875 15.3301 15.2414 15.0467C15.2499 15.031 15.2586 15.0154 15.2675 15C15.6133 14.4022 16.2597 14 17 14C17.7403 14 18.3868 14.4024 18.7326 15.0002C18.9026 15.2944 19 15.6358 19 16C19 16.3452 18.9125 16.6699 18.7586 16.9533C18.7501 16.969 18.7414 16.9846 18.7325 17C18.3867 17.5978 17.7403 18 17 18Z" fill="black"/>
<path d="M11 18C10.2597 18 9.6133 17.5978 9.2675 17C9.0975 16.7059 9 16.3642 9 16C9 15.6548 9.0875 15.3301 9.2414 15.0467C9.2499 15.031 9.2586 15.0154 9.2675 15C9.6133 14.4022 10.2597 14 11 14C11.7403 14 12.3868 14.4024 12.7326 15.0002C12.9026 15.2944 13 15.6358 13 16C13 16.3452 12.9125 16.6699 12.7586 16.9533C12.7501 16.969 12.7414 16.9846 12.7325 17C12.3867 17.5978 11.7403 18 11 18Z" fill="black"/>
<path d="M23 18C22.2597 18 21.6133 17.5978 21.2675 17C21.0975 16.7059 21 16.3642 21 16C21 15.6548 21.0875 15.3301 21.2414 15.0467C21.2499 15.031 21.2586 15.0154 21.2675 15C21.6133 14.4022 22.2597 14 23 14C23.7403 14 24.3868 14.4024 24.7326 15.0002C24.9026 15.2944 25 15.6358 25 16C25 16.3452 24.9125 16.6699 24.7586 16.9533C24.7501 16.969 24.7414 16.9846 24.7325 17C24.3867 17.5978 23.7403 18 23 18Z" fill="black"/>
</svg>
