<svg width="32" height="32" viewBox="0 0 32 32" fill="none" xmlns="http://www.w3.org/2000/svg">
<path d="M10 24C11.1053 24 12 23.104 12 22C12 20.896 11.1053 20 10 20C8.89467 20 8 20.896 8 22C8 23.104 8.89467 24 10 24Z" fill="black"/>
<path fill-rule="evenodd" clip-rule="evenodd" d="M8 9C8 8.44772 8.44772 8 9 8C17.2843 8 24 14.7157 24 23C24 23.5523 23.5523 24 23 24C22.4477 24 22 23.5523 22 23C22 15.8203 16.1797 10 9 10C8.44772 10 8 9.55228 8 9Z" fill="black"/>
<path fill-rule="evenodd" clip-rule="evenodd" d="M8 15C8 14.4477 8.44772 14 9 14C13.9706 14 18 18.0294 18 23C18 23.5523 17.5523 24 17 24C16.4477 24 16 23.5523 16 23C16 19.134 12.866 16 9 16C8.44772 16 8 15.5523 8 15Z" fill="black"/>
</svg>
