<svg width="32" height="32" viewBox="0 0 32 32" fill="none" xmlns="http://www.w3.org/2000/svg">
<path fill-rule="evenodd" clip-rule="evenodd" d="M16 6C21.1 6 23.247 6.576 24.336 7.665C25.425 8.754 26 10.9 26 16C26 21.1 25.425 23.247 24.336 24.336C23.247 25.425 21.1 26 16 26C10.9 26 8.753 25.425 7.664 24.336C6.575 23.247 6 21.1 6 16C6 10.9 6.575 8.753 7.664 7.665C8.753 6.576 10.9 6 16 6ZM28 16C28 6 26 4 16 4C6 4 4 6 4 16C4 26 6 28 16 28C26 28 28 26 28 16Z" fill="black"/>
<path fill-rule="evenodd" clip-rule="evenodd" d="M13.8667 8C13.6563 8.00019 13.4481 8.04174 13.2538 8.12226C13.0596 8.20278 12.8832 8.3207 12.7346 8.46929C12.586 8.61787 12.4682 8.79421 12.3879 8.98824C12.3076 9.18226 12.2664 9.39017 12.2667 9.60009C12.2665 9.80998 12.3077 10.0179 12.388 10.2118C12.4683 10.4058 12.5861 10.5821 12.7347 10.7307C12.8833 10.8793 13.0597 10.9971 13.2539 11.0776C13.4481 11.1582 13.6564 11.1997 13.8667 11.1999H15.4667V9.60009C15.4669 9.39017 15.4257 9.18226 15.3454 8.98824C15.2651 8.79421 15.1473 8.61787 14.9988 8.46929C14.8502 8.3207 14.6737 8.20278 14.4795 8.12226C14.2852 8.04174 14.077 8.00019 13.8667 8ZM13.8667 12.2668H9.6C9.38969 12.267 9.18148 12.3085 8.98725 12.389C8.79302 12.4695 8.61659 12.5874 8.46801 12.736C8.31944 12.8845 8.20164 13.0608 8.12134 13.2548C8.04104 13.4488 7.99981 13.6567 8 13.8666C7.99977 14.0765 8.04097 14.2844 8.12125 14.4784C8.20154 14.6725 8.31933 14.8488 8.46791 14.9974C8.61649 15.146 8.79294 15.2639 8.98718 15.3444C9.18143 15.4249 9.38967 15.4665 9.6 15.4667H13.8667C14.077 15.4665 14.2852 15.4249 14.4795 15.3444C14.6737 15.2639 14.8502 15.146 14.9988 14.9974C15.1473 14.8488 15.2651 14.6725 15.3454 14.4784C15.4257 14.2844 15.4669 14.0765 15.4667 13.8666C15.4669 13.6567 15.4256 13.4488 15.3453 13.2548C15.265 13.0608 15.1472 12.8845 14.9987 12.736C14.8501 12.5874 14.6736 12.4695 14.4794 12.389C14.2852 12.3085 14.077 12.267 13.8667 12.2668Z" fill="black"/>
<path fill-rule="evenodd" clip-rule="evenodd" d="M24 13.8666C24.0002 13.6567 23.959 13.4488 23.8787 13.2548C23.7984 13.0608 23.6806 12.8845 23.532 12.736C23.3834 12.5874 23.207 12.4695 23.0127 12.389C22.8185 12.3085 22.6103 12.267 22.4 12.2668C22.1897 12.267 21.9815 12.3085 21.7872 12.389C21.593 12.4695 21.4166 12.5874 21.268 12.736C21.1194 12.8845 21.0016 13.0608 20.9213 13.2548C20.841 13.4488 20.7998 13.6567 20.8 13.8666V15.4667H22.4C22.6103 15.4665 22.8186 15.4249 23.0128 15.3444C23.2071 15.2639 23.3835 15.146 23.5321 14.9974C23.6807 14.8488 23.7985 14.6725 23.8787 14.4784C23.959 14.2844 24.0002 14.0765 24 13.8666ZM19.7333 13.8666V9.60009C19.7336 9.39017 19.6924 9.18226 19.6121 8.98824C19.5318 8.79421 19.414 8.61787 19.2654 8.46929C19.1168 8.3207 18.9404 8.20278 18.7462 8.12226C18.5519 8.04174 18.3437 8.00019 18.1333 8C17.923 8.00019 17.7148 8.04174 17.5205 8.12226C17.3263 8.20278 17.1498 8.3207 17.0012 8.46929C16.8527 8.61787 16.7349 8.79421 16.6546 8.98824C16.5743 9.18226 16.5331 9.39017 16.5333 9.60009V13.8666C16.5331 14.0765 16.5743 14.2844 16.6546 14.4784C16.7349 14.6725 16.8527 14.8488 17.0012 14.9974C17.1498 15.146 17.3263 15.2639 17.5205 15.3444C17.7148 15.4249 17.923 15.4665 18.1333 15.4667C18.3437 15.4665 18.5519 15.4249 18.7462 15.3444C18.9404 15.2639 19.1168 15.146 19.2654 14.9974C19.414 14.8488 19.5318 14.6725 19.6121 14.4784C19.6924 14.2844 19.7336 14.0765 19.7333 13.8666Z" fill="black"/>
<path fill-rule="evenodd" clip-rule="evenodd" d="M18.1333 24C18.3437 23.9998 18.5519 23.9583 18.7462 23.8777C18.9404 23.7972 19.1168 23.6793 19.2654 23.5307C19.414 23.3821 19.5318 23.2058 19.6121 23.0118C19.6924 22.8177 19.7336 22.6098 19.7333 22.3999C19.7335 22.19 19.6923 21.9821 19.612 21.7882C19.5317 21.5942 19.4139 21.4179 19.2653 21.2693C19.1167 21.1207 18.9403 21.0029 18.7461 20.9224C18.5519 20.8418 18.3436 20.8003 18.1333 20.8001H16.5333V22.3999C16.5331 22.6098 16.5743 22.8177 16.6546 23.0118C16.7349 23.2058 16.8527 23.3821 17.0012 23.5307C17.1498 23.6793 17.3263 23.7972 17.5205 23.8777C17.7148 23.9583 17.923 23.9998 18.1333 24ZM18.1333 19.7332H22.4C22.6103 19.733 22.8185 19.6915 23.0127 19.611C23.207 19.5305 23.3834 19.4126 23.532 19.264C23.6806 19.1155 23.7984 18.9392 23.8787 18.7452C23.959 18.5512 24.0002 18.3433 24 18.1334C24.0002 17.9235 23.959 17.7156 23.8787 17.5216C23.7985 17.3275 23.6807 17.1512 23.5321 17.0026C23.3835 16.854 23.2071 16.7361 23.0128 16.6556C22.8186 16.5751 22.6103 16.5335 22.4 16.5333H18.1333C17.923 16.5335 17.7148 16.5751 17.5205 16.6556C17.3263 16.7361 17.1498 16.854 17.0012 17.0026C16.8527 17.1512 16.7349 17.3275 16.6546 17.5216C16.5743 17.7156 16.5331 17.9235 16.5333 18.1334C16.5331 18.3433 16.5744 18.5512 16.6547 18.7452C16.735 18.9392 16.8528 19.1155 17.0013 19.264C17.1499 19.4126 17.3264 19.5305 17.5206 19.611C17.7148 19.6915 17.923 19.733 18.1333 19.7332Z" fill="black"/>
<path fill-rule="evenodd" clip-rule="evenodd" d="M8 18.1334C7.99981 18.3433 8.04104 18.5512 8.12134 18.7452C8.20164 18.9392 8.31944 19.1155 8.46801 19.264C8.61659 19.4126 8.79302 19.5305 8.98725 19.611C9.18148 19.6915 9.38969 19.733 9.6 19.7332C9.81031 19.733 10.0185 19.6915 10.2128 19.611C10.407 19.5305 10.5834 19.4126 10.732 19.264C10.8806 19.1155 10.9984 18.9392 11.0787 18.7452C11.159 18.5512 11.2002 18.3433 11.2 18.1334V16.5333H9.6C9.38964 16.5335 9.18138 16.5751 8.98711 16.6556C8.79285 16.7361 8.61638 16.8541 8.4678 17.0027C8.31922 17.1513 8.20143 17.3277 8.12117 17.5218C8.0409 17.7158 7.99973 17.9235 8 18.1334ZM12.2667 18.1334V22.3999C12.2664 22.6098 12.3076 22.8177 12.3879 23.0118C12.4682 23.2058 12.586 23.3821 12.7346 23.5307C12.8832 23.6793 13.0596 23.7972 13.2538 23.8777C13.4481 23.9583 13.6563 23.9998 13.8667 24C14.077 23.9998 14.2852 23.9583 14.4795 23.8777C14.6737 23.7972 14.8502 23.6793 14.9988 23.5307C15.1473 23.3821 15.2651 23.2058 15.3454 23.0118C15.4257 22.8177 15.4669 22.6098 15.4667 22.3999V18.1337C15.4669 17.9238 15.4257 17.7159 15.3454 17.5218C15.2651 17.3278 15.1473 17.1515 14.9988 17.0029C14.8502 16.8543 14.6737 16.7364 14.4795 16.6559C14.2852 16.5753 14.077 16.5338 13.8667 16.5336C13.6563 16.5338 13.4481 16.5753 13.2538 16.6559C13.0596 16.7364 12.8832 16.8543 12.7346 17.0029C12.586 17.1515 12.4682 17.3278 12.3879 17.5218C12.3076 17.7159 12.2664 17.9235 12.2667 18.1334Z" fill="black"/>
</svg>
