<svg width="32" height="32" viewBox="0 0 32 32" fill="none" xmlns="http://www.w3.org/2000/svg">
<g clip-path="url(#clip0)">
<path d="M16 11C15.448 11 15 10.608 15 10.125V4.875C15 4.392 15.448 4 16 4C16.552 4 17 4.392 17 4.875V10.125C17 10.608 16.552 11 16 11Z" fill="black"/>
<path d="M16 28C15.448 28 15 27.608 15 27.125V21.875C15 21.392 15.448 21 16 21C16.552 21 17 21.392 17 21.875V27.125C17 27.608 16.552 28 16 28Z" fill="black"/>
<path d="M11 16C11 16.552 10.608 17 10.125 17H4.875C4.392 17 4 16.552 4 16C4 15.448 4.392 15 4.875 15H10.125C10.608 15 11 15.448 11 16Z" fill="black"/>
<path d="M28 16C28 16.552 27.608 17 27.125 17H21.875C21.392 17 21 16.552 21 16C21 15.448 21.392 15 21.875 15H27.125C27.608 15 28 15.448 28 16Z" fill="black"/>
<path d="M11.4645 11.4645C11.0741 11.8548 10.4802 11.8944 10.1386 11.5529L7.42634 8.84054C7.0848 8.49901 7.1244 7.90504 7.51472 7.51472C7.90505 7.12439 8.49902 7.0848 8.84055 7.42633L11.5529 10.1386C11.8944 10.4802 11.8548 11.0741 11.4645 11.4645Z" fill="black"/>
<path d="M24.4853 24.4645C24.095 24.8548 23.501 24.8944 23.1595 24.5529L20.4471 21.8406C20.1056 21.499 20.1452 20.9051 20.5355 20.5147C20.9259 20.1244 21.5198 20.0848 21.8614 20.4264L24.5737 23.1387C24.9152 23.4802 24.8756 24.0742 24.4853 24.4645Z" fill="black"/>
<path d="M11.4645 20.5147C11.8548 20.9051 11.8944 21.499 11.5529 21.8406L8.84058 24.5529C8.49905 24.8944 7.90508 24.8548 7.51476 24.4645C7.12443 24.0742 7.08484 23.4802 7.42637 23.1387L10.1387 20.4263C10.4802 20.0848 11.0742 20.1244 11.4645 20.5147Z" fill="black"/>
<path d="M24.4853 7.51472C24.8756 7.90505 24.9152 8.49902 24.5736 8.84055L21.8613 11.5529C21.5198 11.8944 20.9258 11.8548 20.5355 11.4645C20.1452 11.0741 20.1056 10.4802 20.4471 10.1386L23.1594 7.42633C23.501 7.0848 24.0949 7.1244 24.4853 7.51472Z" fill="black"/>
</g>
<defs>
<clipPath id="clip0">
<rect width="32" height="32" fill="white"/>
</clipPath>
</defs>
</svg>
