<svg width="32" height="32" viewBox="0 0 32 32" fill="none" xmlns="http://www.w3.org/2000/svg">
<path fill-rule="evenodd" clip-rule="evenodd" d="M26 16C26 21.523 21.523 26 16 26C10.477 26 6 21.523 6 16C6 10.477 10.477 6 16 6C21.523 6 26 10.477 26 16ZM28 16C28 22.627 22.627 28 16 28C9.373 28 4 22.627 4 16C4 9.373 9.373 4 16 4C22.627 4 28 9.373 28 16Z" fill="black"/>
<path d="M16 27C15.448 27 15 26.552 15 26V6C15 5.448 15.448 5 16 5C16.552 5 17 5.448 17 6V26C17 26.552 16.552 27 16 27Z" fill="black"/>
<path d="M27 16C27 16.552 26.552 17 26 17H6C5.448 17 5 16.552 5 16C5 15.448 5.448 15 6 15L26 15C26.552 15 27 15.448 27 16Z" fill="black"/>
<mask id="path-4-inside-1" fill="white">
<path d="M16 26C19.682 26 21 21.523 21 16C21 10.477 19.682 6 16 6V4C20.418 4 23 9.373 23 16C23 22.627 20.418 28 16 28V26Z"/>
</mask>
<path d="M16 26V24H14V26H16ZM16 6H14V8H16V6ZM16 28H14V30H16V28ZM16 4V2H14V4H16ZM19 16C19 18.6575 18.6749 20.834 18.0477 22.2712C17.456 23.6271 16.7835 24 16 24V28C18.8985 28 20.726 26.1344 21.7138 23.8711C22.6661 21.689 23 18.8655 23 16H19ZM16 8C16.7835 8 17.456 8.37295 18.0477 9.72885C18.6749 11.166 19 13.3425 19 16H23C23 13.1345 22.6661 10.311 21.7138 8.1289C20.726 5.86555 18.8985 4 16 4V8ZM21 16C21 19.09 20.3926 21.7295 19.4055 23.5192C18.4326 25.2831 17.2508 26 16 26V30C19.1672 30 21.4854 28.0304 22.908 25.451C24.3164 22.8975 25 19.537 25 16H21ZM16 6C17.2508 6 18.4326 6.71689 19.4055 8.48079C20.3926 10.2705 21 12.91 21 16H25C25 12.463 24.3164 9.1025 22.908 6.54896C21.4854 3.96961 19.1672 2 16 2V6ZM18 6V4H14V6H18ZM14 26V28H18V26H14Z" fill="black" mask="url(#path-4-inside-1)"/>
<mask id="path-6-inside-2" fill="white">
<path d="M16 26C12.318 26 11 21.523 11 16C11 10.477 12.318 6 16 6V4C11.582 4 9 9.373 9 16C9 22.627 11.582 28 16 28V26Z"/>
</mask>
<path d="M16 26V24H18V26H16ZM16 6H18V8H16V6ZM16 28H18V30H16V28ZM16 4V2H18V4H16ZM13 16C13 18.6575 13.3251 20.834 13.9523 22.2712C14.544 23.6271 15.2165 24 16 24V28C13.1015 28 11.274 26.1344 10.2862 23.8711C9.33392 21.689 9 18.8655 9 16H13ZM16 8C15.2165 8 14.544 8.37295 13.9523 9.72885C13.3251 11.166 13 13.3425 13 16H9C9 13.1345 9.33392 10.311 10.2862 8.1289C11.274 5.86555 13.1015 4 16 4V8ZM11 16C11 19.09 11.6074 21.7295 12.5945 23.5192C13.5674 25.2831 14.7492 26 16 26V30C12.8328 30 10.5146 28.0304 9.09196 25.451C7.68357 22.8975 7 19.537 7 16H11ZM16 6C14.7492 6 13.5674 6.71689 12.5945 8.48079C11.6074 10.2705 11 12.91 11 16H7C7 12.463 7.68357 9.1025 9.09196 6.54896C10.5146 3.96961 12.8328 2 16 2V6ZM14 6V4H18V6H14ZM18 26V28H14V26H18Z" fill="black" mask="url(#path-6-inside-2)"/>
</svg>
